<mxfile host="app.diagrams.net" modified="2021-07-28T07:13:57.214Z" agent="5.0 (Windows NT 10.0; Win64; x64) AppleWebKit/537.36 (KHTML, like Gecko) Chrome/92.0.4515.107 Safari/537.36" etag="ohiVJxPD3lm5V6bmPG0V" version="14.9.2" type="github">
  <diagram id="tDlVZkPplq9Yx5lwNJJn" name="第 1 页">
    <mxGraphModel dx="833" dy="463" grid="1" gridSize="10" guides="1" tooltips="1" connect="1" arrows="1" fold="1" page="1" pageScale="1" pageWidth="827" pageHeight="1169" math="0" shadow="0">
      <root>
        <mxCell id="0" />
        <mxCell id="1" parent="0" />
        <mxCell id="u2RAki7muHQ0PCoqNx1q-16" value="" style="rounded=0;whiteSpace=wrap;html=1;fillColor=none;dashed=1;strokeWidth=2;" vertex="1" parent="1">
          <mxGeometry x="70" y="860" width="480" height="164.5" as="geometry" />
        </mxCell>
        <mxCell id="u2RAki7muHQ0PCoqNx1q-3" value="合并" style="edgeStyle=orthogonalEdgeStyle;rounded=0;orthogonalLoop=1;jettySize=auto;html=1;" edge="1" parent="1" source="u2RAki7muHQ0PCoqNx1q-1" target="u2RAki7muHQ0PCoqNx1q-2">
          <mxGeometry relative="1" as="geometry" />
        </mxCell>
        <mxCell id="u2RAki7muHQ0PCoqNx1q-1" value="留资线索&lt;br&gt;clue_phone&lt;br&gt;clue_id" style="rounded=0;whiteSpace=wrap;html=1;" vertex="1" parent="1">
          <mxGeometry x="264" y="40" width="120" height="60" as="geometry" />
        </mxCell>
        <mxCell id="u2RAki7muHQ0PCoqNx1q-5" value="" style="edgeStyle=orthogonalEdgeStyle;rounded=0;orthogonalLoop=1;jettySize=auto;html=1;" edge="1" parent="1" source="u2RAki7muHQ0PCoqNx1q-2" target="u2RAki7muHQ0PCoqNx1q-4">
          <mxGeometry relative="1" as="geometry" />
        </mxCell>
        <mxCell id="u2RAki7muHQ0PCoqNx1q-2" value="唯一线索&lt;br&gt;clue_user&lt;br&gt;uid" style="rounded=0;whiteSpace=wrap;html=1;" vertex="1" parent="1">
          <mxGeometry x="264" y="180" width="120" height="60" as="geometry" />
        </mxCell>
        <mxCell id="u2RAki7muHQ0PCoqNx1q-20" value="" style="edgeStyle=orthogonalEdgeStyle;rounded=0;orthogonalLoop=1;jettySize=auto;html=1;" edge="1" parent="1" source="u2RAki7muHQ0PCoqNx1q-4" target="u2RAki7muHQ0PCoqNx1q-14">
          <mxGeometry relative="1" as="geometry" />
        </mxCell>
        <mxCell id="u2RAki7muHQ0PCoqNx1q-29" style="edgeStyle=orthogonalEdgeStyle;rounded=0;orthogonalLoop=1;jettySize=auto;html=1;exitX=0.5;exitY=1;exitDx=0;exitDy=0;" edge="1" parent="1" source="u2RAki7muHQ0PCoqNx1q-4" target="u2RAki7muHQ0PCoqNx1q-28">
          <mxGeometry relative="1" as="geometry" />
        </mxCell>
        <mxCell id="u2RAki7muHQ0PCoqNx1q-4" value="自营线索" style="rounded=0;whiteSpace=wrap;html=1;" vertex="1" parent="1">
          <mxGeometry x="264" y="320" width="120" height="60" as="geometry" />
        </mxCell>
        <mxCell id="u2RAki7muHQ0PCoqNx1q-25" style="edgeStyle=orthogonalEdgeStyle;rounded=0;orthogonalLoop=1;jettySize=auto;html=1;exitX=0.5;exitY=1;exitDx=0;exitDy=0;" edge="1" parent="1" source="u2RAki7muHQ0PCoqNx1q-6" target="u2RAki7muHQ0PCoqNx1q-23">
          <mxGeometry relative="1" as="geometry" />
        </mxCell>
        <mxCell id="u2RAki7muHQ0PCoqNx1q-6" value="表1&lt;br&gt;旧模式" style="rounded=0;whiteSpace=wrap;html=1;" vertex="1" parent="1">
          <mxGeometry x="160" y="934.5" width="120" height="60" as="geometry" />
        </mxCell>
        <mxCell id="u2RAki7muHQ0PCoqNx1q-24" style="edgeStyle=orthogonalEdgeStyle;rounded=0;orthogonalLoop=1;jettySize=auto;html=1;exitX=0.5;exitY=1;exitDx=0;exitDy=0;" edge="1" parent="1" source="u2RAki7muHQ0PCoqNx1q-7" target="u2RAki7muHQ0PCoqNx1q-23">
          <mxGeometry relative="1" as="geometry" />
        </mxCell>
        <mxCell id="u2RAki7muHQ0PCoqNx1q-7" value="表2&lt;br&gt;新模式&amp;nbsp;" style="rounded=0;whiteSpace=wrap;html=1;" vertex="1" parent="1">
          <mxGeometry x="382" y="934.5" width="120" height="60" as="geometry" />
        </mxCell>
        <mxCell id="u2RAki7muHQ0PCoqNx1q-26" style="edgeStyle=orthogonalEdgeStyle;rounded=0;orthogonalLoop=1;jettySize=auto;html=1;exitX=0.5;exitY=1;exitDx=0;exitDy=0;entryX=0.5;entryY=0;entryDx=0;entryDy=0;" edge="1" parent="1" target="u2RAki7muHQ0PCoqNx1q-23">
          <mxGeometry relative="1" as="geometry">
            <mxPoint x="700" y="874.5" as="sourcePoint" />
          </mxGeometry>
        </mxCell>
        <mxCell id="u2RAki7muHQ0PCoqNx1q-8" value="表3&lt;br&gt;采集模式" style="rounded=0;whiteSpace=wrap;html=1;" vertex="1" parent="1">
          <mxGeometry x="650" y="770" width="120" height="60" as="geometry" />
        </mxCell>
        <mxCell id="u2RAki7muHQ0PCoqNx1q-12" value="分配自营DCC" style="rounded=0;whiteSpace=wrap;html=1;" vertex="1" parent="1">
          <mxGeometry x="530" y="320" width="120" height="60" as="geometry" />
        </mxCell>
        <mxCell id="u2RAki7muHQ0PCoqNx1q-13" value="" style="shape=flexArrow;endArrow=classic;html=1;" edge="1" parent="1">
          <mxGeometry width="50" height="50" relative="1" as="geometry">
            <mxPoint x="510" y="349.5" as="sourcePoint" />
            <mxPoint x="440" y="349.5" as="targetPoint" />
          </mxGeometry>
        </mxCell>
        <mxCell id="u2RAki7muHQ0PCoqNx1q-30" style="edgeStyle=orthogonalEdgeStyle;rounded=0;orthogonalLoop=1;jettySize=auto;html=1;exitX=0.5;exitY=1;exitDx=0;exitDy=0;entryX=0.5;entryY=0;entryDx=0;entryDy=0;" edge="1" parent="1" source="u2RAki7muHQ0PCoqNx1q-14" target="u2RAki7muHQ0PCoqNx1q-27">
          <mxGeometry relative="1" as="geometry" />
        </mxCell>
        <mxCell id="u2RAki7muHQ0PCoqNx1q-14" value="自营未处理" style="rounded=0;whiteSpace=wrap;html=1;" vertex="1" parent="1">
          <mxGeometry x="144" y="450" width="120" height="60" as="geometry" />
        </mxCell>
        <mxCell id="u2RAki7muHQ0PCoqNx1q-17" value="首次分配" style="text;html=1;strokeColor=none;fillColor=none;align=center;verticalAlign=middle;whiteSpace=wrap;rounded=0;dashed=1;" vertex="1" parent="1">
          <mxGeometry x="80" y="884.5" width="60" height="20" as="geometry" />
        </mxCell>
        <mxCell id="u2RAki7muHQ0PCoqNx1q-23" value="分配DCC" style="rounded=0;whiteSpace=wrap;html=1;strokeWidth=1;" vertex="1" parent="1">
          <mxGeometry x="382" y="1060" width="120" height="60" as="geometry" />
        </mxCell>
        <mxCell id="u2RAki7muHQ0PCoqNx1q-32" style="edgeStyle=orthogonalEdgeStyle;rounded=0;orthogonalLoop=1;jettySize=auto;html=1;exitX=0.5;exitY=1;exitDx=0;exitDy=0;entryX=0.5;entryY=0;entryDx=0;entryDy=0;" edge="1" parent="1" source="u2RAki7muHQ0PCoqNx1q-27" target="u2RAki7muHQ0PCoqNx1q-31">
          <mxGeometry relative="1" as="geometry" />
        </mxCell>
        <mxCell id="u2RAki7muHQ0PCoqNx1q-27" value="线索清洗" style="rounded=0;whiteSpace=wrap;html=1;strokeWidth=1;fillColor=#ffffff;" vertex="1" parent="1">
          <mxGeometry x="144" y="570" width="120" height="60" as="geometry" />
        </mxCell>
        <mxCell id="u2RAki7muHQ0PCoqNx1q-33" style="edgeStyle=orthogonalEdgeStyle;rounded=0;orthogonalLoop=1;jettySize=auto;html=1;exitX=0.5;exitY=1;exitDx=0;exitDy=0;entryX=0.5;entryY=0;entryDx=0;entryDy=0;" edge="1" parent="1" target="u2RAki7muHQ0PCoqNx1q-31">
          <mxGeometry relative="1" as="geometry">
            <mxPoint x="400" y="505" as="sourcePoint" />
            <mxPoint x="324.02857142857135" y="715" as="targetPoint" />
            <Array as="points">
              <mxPoint x="400" y="675" />
              <mxPoint x="324" y="675" />
            </Array>
          </mxGeometry>
        </mxCell>
        <mxCell id="u2RAki7muHQ0PCoqNx1q-28" value="自营已处理" style="rounded=0;whiteSpace=wrap;html=1;" vertex="1" parent="1">
          <mxGeometry x="340" y="450" width="120" height="60" as="geometry" />
        </mxCell>
        <mxCell id="u2RAki7muHQ0PCoqNx1q-31" value="首次分配" style="rounded=0;whiteSpace=wrap;html=1;strokeWidth=1;fillColor=#ffffff;" vertex="1" parent="1">
          <mxGeometry x="264" y="720" width="120" height="60" as="geometry" />
        </mxCell>
      </root>
    </mxGraphModel>
  </diagram>
</mxfile>
